<svg width="73" height="39" viewBox="0 0 73 39" fill="none" xmlns="http://www.w3.org/2000/svg">
<path d="M55.821 30.9782C52.7986 30.9782 50.7274 29.9551 49.4866 27.8503C48.5355 26.2358 48.4042 24.5248 48.3925 24.3401V15.807H54.9635C56.3842 15.807 57.535 14.6532 57.535 13.2307C57.535 11.8074 56.3842 10.6544 54.9635 10.6544H48.3925V2.92549C48.3925 1.50302 47.2408 0.349178 45.8209 0.349178C44.4002 0.349178 43.2494 1.50302 43.2494 2.92549V10.6544H42.1067C40.686 10.6544 39.5352 11.8074 39.5352 13.2307C39.5352 14.6532 40.686 15.807 42.1067 15.807H43.2494V24.3941C43.2494 24.4185 43.2494 24.4419 43.2503 24.4663C43.2584 24.7646 43.3763 27.4707 44.923 30.2346C46.4283 32.9244 49.5415 36.1309 55.821 36.1309C57.2417 36.1309 58.3925 34.977 58.3925 33.5545C58.3925 32.1312 57.2417 30.9782 55.821 30.9782Z" fill="#0B2240"/>
<path d="M33.248 33.6258C33.248 34.3145 33.5 34.9049 34.0039 35.3944C34.5077 35.8857 35.1142 36.1309 35.8223 36.1309C36.5304 36.1309 37.1368 35.8857 37.6407 35.3944C38.1446 34.9049 38.3974 34.3145 38.3974 33.6258V13.1613C38.3974 12.4717 38.1446 11.8831 37.6407 11.3918C37.1368 10.9014 36.5304 10.6562 35.8223 10.6562C35.1142 10.6562 34.5077 10.9014 34.0039 11.3918C33.5 11.8831 33.248 12.4717 33.248 13.1613V33.6258Z" fill="#0B2240"/>
<path d="M28.1778 14.3494C25.6971 11.8714 22.7665 10.6562 19.1549 10.6562H18.7887H11.5437H11.487V2.92549C11.487 1.50212 10.3353 0.349178 8.91551 0.349178C7.49477 0.349178 6.34397 1.50212 6.34397 2.92549V10.6562H6.04255H4.99611H3.5061C2.80788 10.6562 2.21043 10.9086 1.71376 11.4125C1.21709 11.9164 0.96875 12.5213 0.96875 13.2289C0.96875 13.9366 1.21709 14.5423 1.71376 15.0462C2.21043 15.5501 2.80788 15.8016 3.5061 15.8016H4.99611H6.04255H6.34397V24.3941C6.34397 24.4176 6.34397 24.4419 6.34487 24.4654C6.35297 24.7646 6.46993 27.4698 8.01754 30.2346C9.52285 32.9244 12.6351 36.1309 18.9155 36.1309C18.9704 36.1309 19.0244 36.1255 19.0784 36.1227C19.1036 36.1227 19.1288 36.1236 19.1549 36.1236C22.6622 36.1236 25.698 34.8679 28.1778 32.3899C30.6584 29.9109 31.9163 26.8758 31.9163 23.3692C31.9163 19.8635 30.6584 16.8284 28.1778 14.3494ZM24.54 28.7481C23.0419 30.2454 21.281 30.9728 19.1549 30.9728C17.0287 30.9728 15.2661 30.2454 13.7689 28.7481C12.2716 27.2517 11.5437 25.493 11.5437 23.3692L11.487 21.7601V19.6688V17.9705V15.8016H13.6186H15.2652H18.3649H19.944C19.9899 15.8061 20.0339 15.8143 20.0798 15.8197C21.7984 16.0054 23.2659 16.7175 24.54 17.9903C26.0372 19.4867 26.7651 21.2463 26.7651 23.3692C26.7651 25.493 26.0372 27.2526 24.54 28.7481Z" fill="#0B2240"/>
<path d="M61.1607 31.8973L59.4566 27.8976C59.3981 27.2684 60.0927 27.4397 60.6875 27.6506L71.4433 31.5917C72.0371 31.8036 72.2684 32.3823 71.724 32.6996L61.3911 38.6689C60.4157 39.327 60.2205 38.9339 60.2988 38.1055L61.5341 34.2032C61.6268 33.8102 61.6601 33.629 62.7731 33.4757L66.1716 32.879C66.7861 32.742 66.7744 32.614 66.1446 32.5932L61.9561 32.4256C61.3263 32.4048 61.2147 32.3498 61.1607 31.8973Z" fill="#0B2240"/>
<path d="M35.8226 3.43978C37.4322 3.43978 38.7369 4.74687 38.7369 6.35954C38.7369 7.97221 37.4322 9.2793 35.8226 9.2793C34.2129 9.2793 32.9082 7.97221 32.9082 6.35954C32.9082 4.74687 34.2129 3.43978 35.8226 3.43978Z" fill="#0B2240"/>
</svg>
