<svg width="49" height="27" viewBox="0 0 49 27" fill="none" xmlns="http://www.w3.org/2000/svg">
<g clip-path="url(#clip0_1411_6337)">
<mask id="mask0_1411_6337" style="mask-type:luminance" maskUnits="userSpaceOnUse" x="-95" y="-21" width="371" height="524">
<path d="M-94.1758 502.324H275.144V-20.9683H-94.1758V502.324Z" fill="white"/>
</mask>
<g mask="url(#mask0_1411_6337)">
<path d="M37.8233 21.2948C35.7393 21.2948 34.3111 20.5893 33.4556 19.1379C32.7998 18.0247 32.7092 16.845 32.7011 16.7175V10.8338H37.2321C38.2117 10.8338 39.0052 10.0382 39.0052 9.05732C39.0052 8.07587 38.2117 7.28088 37.2321 7.28088H32.7011V1.95155C32.7011 0.970713 31.907 0.175106 30.928 0.175106C29.9483 0.175106 29.1548 0.970713 29.1548 1.95155V7.28088H28.3669C27.3873 7.28088 26.5938 8.07587 26.5938 9.05732C26.5938 10.0382 27.3873 10.8338 28.3669 10.8338H29.1548V16.7548C29.1548 16.7716 29.1548 16.7878 29.1555 16.8046C29.161 17.0103 29.2423 18.8762 30.3088 20.782C31.3468 22.6367 33.4934 24.8477 37.8233 24.8477C38.8029 24.8477 39.5965 24.052 39.5965 23.0712C39.5965 22.0898 38.8029 21.2948 37.8233 21.2948Z" fill="white"/>
<path d="M22.2578 23.1203C22.2578 23.5952 22.4315 24.0023 22.779 24.3398C23.1264 24.6786 23.5446 24.8477 24.0328 24.8477C24.5211 24.8477 24.9393 24.6786 25.2867 24.3398C25.6341 24.0023 25.8085 23.5952 25.8085 23.1203V9.00946C25.8085 8.53396 25.6341 8.12808 25.2867 7.78932C24.9393 7.45119 24.5211 7.28212 24.0328 7.28212C23.5446 7.28212 23.1264 7.45119 22.779 7.78932C22.4315 8.12808 22.2578 8.53396 22.2578 9.00946V23.1203Z" fill="white"/>
<path d="M18.7614 9.82869C17.0509 8.12 15.0302 7.28212 12.5399 7.28212H12.2874H7.29177H7.25268V1.95155C7.25268 0.970095 6.45855 0.175106 5.47953 0.175106C4.49989 0.175106 3.70637 0.970095 3.70637 1.95155V7.28212H3.49854H2.77699H1.74958C1.26813 7.28212 0.856176 7.45616 0.513705 7.80362C0.171235 8.15108 0 8.56815 0 9.05608C0 9.54401 0.171235 9.96171 0.513705 10.3092C0.856176 10.6566 1.26813 10.83 1.74958 10.83H2.77699H3.49854H3.70637V16.7548C3.70637 16.771 3.70638 16.7878 3.707 16.8039C3.71258 17.0103 3.79323 18.8756 4.86035 20.782C5.89831 22.6367 8.04433 24.8477 12.3749 24.8477C12.4127 24.8477 12.4499 24.8439 12.4871 24.8421C12.5045 24.8421 12.5219 24.8427 12.5399 24.8427C14.9583 24.8427 17.0516 23.9768 18.7614 22.2681C20.4719 20.5588 21.3393 18.466 21.3393 16.0481C21.3393 13.6308 20.4719 11.538 18.7614 9.82869ZM16.2531 19.757C15.2201 20.7894 14.0059 21.291 12.5399 21.291C11.0738 21.291 9.85844 20.7894 8.82606 19.757C7.79369 18.7252 7.29177 17.5125 7.29177 16.0481L7.25268 14.9386V13.4966V12.3255V10.83H8.72245H9.85782H11.9952H13.084C13.1156 10.8331 13.146 10.8387 13.1777 10.8425C14.3627 10.9705 15.3746 11.4616 16.2531 12.3392C17.2855 13.371 17.7874 14.5843 17.7874 16.0481C17.7874 17.5125 17.2855 18.7258 16.2531 19.757Z" fill="white"/>
<path d="M41.5036 21.9287L40.3286 19.1708C40.2882 18.7369 40.7672 18.855 41.1773 19.0004L48.5938 21.7179C49.0032 21.864 49.1627 22.2631 48.7873 22.4819L41.6625 26.5979C40.9899 27.0516 40.8553 26.7806 40.9093 26.2094L41.7611 23.5186C41.825 23.2476 41.848 23.1227 42.6154 23.017L44.9587 22.6055C45.3825 22.5111 45.3744 22.4228 44.9401 22.4085L42.0521 22.2929C41.6178 22.2786 41.5409 22.2407 41.5036 21.9287Z" fill="#E01A33"/>
<path d="M24.033 2.30649C25.1429 2.30649 26.0425 3.20776 26.0425 4.31975C26.0425 5.43173 25.1429 6.33301 24.033 6.33301C22.923 6.33301 22.0234 5.43173 22.0234 4.31975C22.0234 3.20776 22.923 2.30649 24.033 2.30649Z" fill="#E01A33"/>
</g>
</g>
<defs>
<clipPath id="clip0_1411_6337">
<rect width="49" height="27" fill="white"/>
</clipPath>
</defs>
</svg>
