<svg width="20" height="21" viewBox="0 0 20 21" fill="none" xmlns="http://www.w3.org/2000/svg">
<g clip-path="url(#clip0_697_938)">
<path d="M11.5933 17.3252L12.4704 16.9416C14.2912 16.1467 16.3638 16.1615 18.173 16.9821L18.862 17.2951L19.138 16.6885L18.4491 16.3752C16.4674 15.4758 14.1974 15.4597 12.2033 16.3309L11.7033 16.5498L11.7907 16.4699C13.186 15.181 15.194 14.8003 16.9644 15.4888L18.2144 15.9699L18.4536 15.3472L17.2036 14.8666C15.1974 14.0863 12.9219 14.5178 11.3403 15.9782L10 17.2062L8.66032 15.9782C7.07878 14.5178 4.80339 14.0863 2.79704 14.8666L1.54704 15.3472L1.7863 15.9699L3.0363 15.4888C4.80664 14.8002 6.81462 15.1808 8.20996 16.4699L8.29736 16.5498L7.79736 16.3309C5.80322 15.4597 3.5332 15.4758 1.5516 16.3752L0.86263 16.6885L1.13867 17.2951L1.82764 16.9821C3.63688 16.1612 5.70947 16.1465 7.53027 16.9416L8.40674 17.3252H0V19.9919H20V17.3252H11.5933ZM9.66667 19.3252H0.666667V17.9919H9.66667V19.3252ZM19.3333 19.3252H10.3333V17.9919H19.3333V19.3252Z" fill="#E1AB3D"/>
<path d="M9.99971 14.784L3.82067 8.95068C2.57816 7.71208 2.20462 5.84684 2.87438 4.22526C3.54414 2.60368 5.12536 1.5459 6.87975 1.54525C8.08499 1.54525 9.21032 2.41764 9.94209 3.14974L9.99499 3.20264L10.0427 3.1543C10.7761 2.41829 11.903 1.54199 13.1164 1.54199C14.8667 1.54215 16.445 2.59505 17.1172 4.21126C17.7894 5.82731 17.4234 7.68896 16.1893 8.93034L16.1823 8.93766L9.99971 14.784ZM6.87975 2.21191C5.39652 2.21224 4.05944 3.10579 3.49157 4.47607C2.92386 5.84635 3.23701 7.42367 4.28535 8.47298L9.99971 13.8667L15.7204 8.45866C16.7637 7.40771 17.0725 5.83219 16.503 4.46517C15.9333 3.09814 14.5974 2.20785 13.1164 2.20866C12.3496 2.20866 11.4247 2.71126 10.5163 3.62402L9.99808 4.14795L9.47106 3.62093C8.82767 2.97835 7.85664 2.21191 6.87975 2.21191Z" fill="#E1AB3D"/>
</g>
<defs>
<clipPath id="clip0_697_938">
<rect width="20" height="20" fill="white" transform="translate(0 0.75)"/>
</clipPath>
</defs>
</svg>
