<svg width="36" height="26" viewBox="0 0 36 26" fill="none" xmlns="http://www.w3.org/2000/svg">
<path d="M1.5 6.48166C1.5 5.18505 2.07946 3.94154 3.11091 3.0247C4.14236 2.10785 5.54131 1.59277 7 1.59277H29C30.4587 1.59277 31.8576 2.10785 32.8891 3.0247C33.9205 3.94154 34.5 5.18505 34.5 6.48166V19.5187C34.5 20.8153 33.9205 22.0588 32.8891 22.9757C31.8576 23.8925 30.4587 24.4076 29 24.4076H7C5.54131 24.4076 4.14236 23.8925 3.11091 22.9757C2.07946 22.0588 1.5 20.8153 1.5 19.5187V6.48166Z" stroke="white" stroke-width="2.75" stroke-linecap="round" stroke-linejoin="round"/>
<path d="M1.5 9.74023H34.5" stroke="white" stroke-width="2.75" stroke-linecap="round" stroke-linejoin="round"/>
<path d="M8.83398 17.8887H8.85232" stroke="white" stroke-width="2.75" stroke-linecap="round" stroke-linejoin="round"/>
<path d="M16.166 17.8887H19.8327" stroke="white" stroke-width="2.75" stroke-linecap="round" stroke-linejoin="round"/>
</svg>
