<svg width="15" height="37" viewBox="0 0 15 37" fill="none" xmlns="http://www.w3.org/2000/svg">
<path d="M2 35.0003H13V18.5003C13 18.0141 12.8068 17.5478 12.463 17.204C12.1192 16.8601 11.6529 16.667 11.1667 16.667H3.83333C3.3471 16.667 2.88079 16.8601 2.53697 17.204C2.19315 17.5478 2 18.0141 2 18.5003V35.0003Z" stroke="#E1AB3D" stroke-width="2.75" stroke-linecap="round" stroke-linejoin="round"/>
<path d="M7.5015 2L10.1873 5.003C10.6666 5.51823 10.9875 6.16048 11.1117 6.85311C11.2359 7.54573 11.1582 8.25947 10.8878 8.90913C10.6175 9.55879 10.1659 10.1169 9.58695 10.5169C9.00803 10.917 8.32623 11.1419 7.62294 11.165C6.91964 11.1881 6.22456 11.0084 5.62064 10.6472C5.01673 10.286 4.52949 9.7587 4.21709 9.12817C3.90469 8.49765 3.78032 7.79054 3.85883 7.09126C3.93734 6.39198 4.2154 5.73006 4.65983 5.1845L7.5015 2Z" fill="#E1AB3D" stroke="#E1AB3D" stroke-width="2.75" stroke-linecap="round" stroke-linejoin="round"/>
</svg>
