<svg width="34" height="34" viewBox="0 0 34 34" fill="none" xmlns="http://www.w3.org/2000/svg">
<path d="M17.9167 0.704102C23.6238 0.704102 27.6498 3.61299 28.6655 8.14336C31.828 10.0745 33.5 13.28 33.5 17.0004C33.5 21.7801 28.462 25.7743 22.8978 25.9568L22.5 25.9634H19.2843L18.43 30.5263C18.2707 31.2257 17.8574 31.8592 17.2535 32.3295C16.6497 32.7997 15.8888 33.0805 15.0878 33.1288L14.8 33.1337H9.88667C9.47435 33.1409 9.0655 33.0655 8.69039 32.9132C8.31529 32.7608 7.98352 32.5355 7.71967 32.2537C7.25966 31.7685 7.03077 31.1429 7.08167 30.51L7.15867 30.0374H4.16667C2.326 30.0374 0.657667 28.6294 0.511 27.0112L0.5 26.7782L0.518333 26.5484L4.17217 3.80855L4.17767 3.73032C4.30967 2.27344 5.67183 0.989287 7.28517 0.744842L7.57117 0.71225L7.83333 0.704102H17.9167ZM28.572 12.6819L28.528 12.8237C27.2337 16.7397 22.896 20.0527 18.3438 20.2499L17.9167 20.2597H13.3278V20.3411L13.282 20.6394L11.082 28.7875C11.0719 28.8259 11.0603 28.8639 11.0472 28.9016L10.8858 29.8745H14.8348L15.9257 24.0665C15.9904 23.7193 16.1799 23.4 16.4658 23.1565C16.7516 22.913 17.1185 22.7583 17.5115 22.7155L17.7333 22.7041H22.5C26.3005 22.7041 29.8333 19.9826 29.8333 17.0004C29.8333 15.3349 29.4007 13.865 28.572 12.6819Z" fill="#0B2240"/>
</svg>
