<svg width="16" height="20" viewBox="0 0 16 20" fill="none" xmlns="http://www.w3.org/2000/svg">
<path d="M3.95456 19.9131H11.7043C12.2297 19.9131 12.6572 19.4856 12.6572 18.9602V16.8371H14.7787C15.3043 16.8371 15.7318 16.4096 15.7318 15.8842V0.952873C15.7318 0.427474 15.3043 0 14.7787 0H4.02922C3.50365 0 3.07617 0.427474 3.07617 0.952873V3.07496H0.952873C0.427473 3.07496 0 3.50243 0 4.02783V18.9602C0 19.4856 0.427473 19.9131 0.952873 19.9131H2.17661C2.37298 19.9131 2.5322 19.754 2.5322 19.5575C2.5322 19.361 2.37298 19.2019 2.17661 19.2019H0.952873C0.821785 19.2019 0.711182 19.0911 0.711182 18.9602V4.02783C0.711182 3.89692 0.821785 3.78614 0.952873 3.78614C0.963239 3.78612 3.42822 3.78616 3.4369 3.78614H11.7041C11.8375 3.78614 11.946 3.89448 11.946 4.02783V13.5125C11.946 13.709 12.1052 13.868 12.3016 13.868C12.4979 13.868 12.6572 13.709 12.6572 13.5125V4.02783C12.6572 3.50243 12.2297 3.07496 11.7041 3.07496H3.78736V0.952873C3.78736 0.819527 3.89588 0.711182 4.02922 0.711182H14.7787C14.9121 0.711182 15.0206 0.819527 15.0206 0.952873V15.8842C15.0206 16.0176 14.9121 16.1259 14.7787 16.1259H12.6572V15.2904C12.647 14.8201 11.9544 14.8249 11.946 15.2904C11.946 15.2904 11.946 16.4755 11.946 16.4755C11.9459 16.4856 11.946 18.9482 11.946 18.9602C11.946 19.0911 11.8354 19.2019 11.7043 19.2019H3.95456C3.49159 19.2046 3.48471 19.9076 3.95456 19.9131Z" fill="#E1AB3D"/>
<path d="M2.41699 12.9786C2.41699 13.1752 2.57621 13.3342 2.77258 13.3342H8.46204C8.65841 13.3342 8.81763 13.1752 8.81763 12.9786C8.81763 12.7821 8.65841 12.623 8.46204 12.623H2.77258C2.57621 12.623 2.41699 12.7821 2.41699 12.9786Z" fill="#E1AB3D"/>
<path d="M2.77229 17.6018H8.46175C8.92737 17.5945 8.93057 16.8986 8.46173 16.8906H2.77229C2.30667 16.8979 2.30347 17.5939 2.77229 17.6018Z" fill="#E1AB3D"/>
<path d="M2.77226 15.468H9.88408C10.0805 15.468 10.2397 15.309 10.2397 15.1124C10.2397 14.9159 10.0805 14.7568 9.88408 14.7568H2.77226C2.30713 14.764 2.30304 15.46 2.77226 15.468Z" fill="#E1AB3D"/>
<path d="M4.68476 10.763C5.08159 11.1767 5.79674 11.177 6.19342 10.763C6.19342 10.763 9.74915 7.20743 9.74915 7.20743C10.1629 6.81063 10.1635 6.09571 9.74948 5.6986C9.34668 5.29578 8.64331 5.29578 8.24084 5.6986L5.43917 8.50027L4.41563 7.47655C3.7844 6.82163 2.55992 7.30797 2.59447 8.23083C2.59444 8.51589 2.70557 8.78397 2.90697 8.98504L4.68476 10.763ZM3.40998 7.97938C3.54219 7.84126 3.78033 7.84138 3.91263 7.97938C3.91263 7.97938 5.18776 9.25451 5.18776 9.25451C5.32666 9.39341 5.55169 9.39341 5.69059 9.25451L8.74384 6.20142C8.95308 5.98271 9.36259 6.14516 9.35067 6.45285C9.35068 6.54799 9.31369 6.63688 9.2465 6.70425L5.69042 10.2602C5.55638 10.3949 5.32215 10.3949 5.18777 10.2602L3.40964 8.48186C3.27193 8.34967 3.27175 8.11183 3.40998 7.97938Z" fill="#E1AB3D"/>
</svg>
