<svg width="197" height="155" viewBox="0 0 197 155" fill="none" xmlns="http://www.w3.org/2000/svg">
<mask id="path-1-outside-1_1693_6405" maskUnits="userSpaceOnUse" x="0" y="0" width="198" height="155" fill="black">
<rect fill="white" width="198" height="155"/>
<path d="M8.99179 6.29784C9.00452 6.19065 9.02571 6.08612 9.05115 5.98265C9.05539 5.9662 9.0612 5.95028 9.06544 5.93383C9.10413 5.79003 9.15341 5.64994 9.21489 5.5157C9.21913 5.50668 9.22177 5.49712 9.22601 5.48863C9.29013 5.35332 9.36856 5.22544 9.45494 5.1034C9.46977 5.08217 9.48355 5.06042 9.49944 5.03972C9.5874 4.92299 9.68597 4.81474 9.7925 4.71339C9.81316 4.69375 9.83382 4.67465 9.85555 4.65555C9.94987 4.57171 10.0484 4.49265 10.1555 4.4226C10.1767 4.40881 10.1995 4.39766 10.2217 4.3844C10.2313 4.37856 10.2381 4.3706 10.2482 4.36477C10.2604 4.35734 10.2742 4.35415 10.2869 4.34672C10.4215 4.26925 10.5609 4.20292 10.705 4.15145C10.7272 4.14349 10.7495 4.13766 10.7723 4.13023C10.9175 4.08247 11.0659 4.0448 11.2169 4.02304C11.2285 4.02145 11.2402 4.02145 11.2513 4.01986C11.3965 4.00128 11.5433 3.99651 11.6901 4.00235C11.7087 4.00288 11.7272 4.00235 11.7458 4.00341C11.892 4.01243 12.0377 4.03631 12.1824 4.0708C12.2068 4.07663 12.2312 4.08194 12.255 4.08831C12.2826 4.09574 12.3112 4.10051 12.3387 4.10847L55.9406 17.3269C57.3194 17.7451 58.099 19.2032 57.6814 20.5839C57.2643 21.9646 55.8092 22.7446 54.4288 22.3276L17.4047 11.1032C30.9324 32.6026 47.7693 52.7469 67.5489 71.0525C84.8199 87.0371 104.354 101.668 125.607 114.538C154.6 132.095 181.175 142.727 191.177 145.896C192.55 146.332 193.312 147.8 192.878 149.175C192.527 150.288 191.499 151 190.392 151C190.131 151 189.866 150.961 189.605 150.878C189.311 150.785 159.782 141.319 123.039 119.089C101.464 106.035 81.6261 91.1861 64.0785 74.9547C44.0753 56.4528 27.0237 36.0915 13.2862 14.3538C11.4522 29.7505 9.30391 48.0052 9.21648 49.4257C9.18202 50.8377 8.02788 51.9721 6.60876 51.9721C5.16792 51.9721 4 50.8026 4 49.3599C3.99841 48.1341 7.49055 18.8371 8.99179 6.29784Z"/>
</mask>
<path d="M8.99179 6.29784C9.00452 6.19065 9.02571 6.08612 9.05115 5.98265C9.05539 5.9662 9.0612 5.95028 9.06544 5.93383C9.10413 5.79003 9.15341 5.64994 9.21489 5.5157C9.21913 5.50668 9.22177 5.49712 9.22601 5.48863C9.29013 5.35332 9.36856 5.22544 9.45494 5.1034C9.46977 5.08217 9.48355 5.06042 9.49944 5.03972C9.5874 4.92299 9.68597 4.81474 9.7925 4.71339C9.81316 4.69375 9.83382 4.67465 9.85555 4.65555C9.94987 4.57171 10.0484 4.49265 10.1555 4.4226C10.1767 4.40881 10.1995 4.39766 10.2217 4.3844C10.2313 4.37856 10.2381 4.3706 10.2482 4.36477C10.2604 4.35734 10.2742 4.35415 10.2869 4.34672C10.4215 4.26925 10.5609 4.20292 10.705 4.15145C10.7272 4.14349 10.7495 4.13766 10.7723 4.13023C10.9175 4.08247 11.0659 4.0448 11.2169 4.02304C11.2285 4.02145 11.2402 4.02145 11.2513 4.01986C11.3965 4.00128 11.5433 3.99651 11.6901 4.00235C11.7087 4.00288 11.7272 4.00235 11.7458 4.00341C11.892 4.01243 12.0377 4.03631 12.1824 4.0708C12.2068 4.07663 12.2312 4.08194 12.255 4.08831C12.2826 4.09574 12.3112 4.10051 12.3387 4.10847L55.9406 17.3269C57.3194 17.7451 58.099 19.2032 57.6814 20.5839C57.2643 21.9646 55.8092 22.7446 54.4288 22.3276L17.4047 11.1032C30.9324 32.6026 47.7693 52.7469 67.5489 71.0525C84.8199 87.0371 104.354 101.668 125.607 114.538C154.6 132.095 181.175 142.727 191.177 145.896C192.55 146.332 193.312 147.8 192.878 149.175C192.527 150.288 191.499 151 190.392 151C190.131 151 189.866 150.961 189.605 150.878C189.311 150.785 159.782 141.319 123.039 119.089C101.464 106.035 81.6261 91.1861 64.0785 74.9547C44.0753 56.4528 27.0237 36.0915 13.2862 14.3538C11.4522 29.7505 9.30391 48.0052 9.21648 49.4257C9.18202 50.8377 8.02788 51.9721 6.60876 51.9721C5.16792 51.9721 4 50.8026 4 49.3599C3.99841 48.1341 7.49055 18.8371 8.99179 6.29784Z" fill="#0B2240"/>
<path d="M8.99179 6.29784L12.9639 6.76914L12.9634 6.77334L8.99179 6.29784ZM9.05115 5.98265L5.16679 5.02778L5.17213 5.00606L5.17772 4.9844L9.05115 5.98265ZM9.06544 5.93383L5.192 4.93558L5.19728 4.91513L5.20276 4.89473L9.06544 5.93383ZM9.21489 5.5157L5.578 3.85043L5.58627 3.83237L5.59473 3.81438L9.21489 5.5157ZM9.22601 5.48863L12.8407 7.20153L12.8231 7.23873L12.8047 7.27556L9.22601 5.48863ZM9.45494 5.1034L12.7333 7.39518L12.7267 7.4047L12.7199 7.41418L9.45494 5.1034ZM9.49944 5.03972L12.694 7.44694L12.6828 7.46177L12.6715 7.4765L9.49944 5.03972ZM9.7925 4.71339L7.03517 1.8156L7.03751 1.81338L9.7925 4.71339ZM9.85555 4.65555L12.5129 7.64527L12.5049 7.65243L12.4967 7.65955L9.85555 4.65555ZM10.1555 4.4226L7.9653 1.07548L7.97346 1.07017L10.1555 4.4226ZM10.2217 4.3844L12.3096 7.79628L12.2897 7.80843L12.2697 7.82036L10.2217 4.3844ZM10.2482 4.36477L12.33 7.78032L12.2924 7.80322L12.2544 7.8253L10.2482 4.36477ZM10.2869 4.34672L8.26939 0.892789L8.28044 0.886341L8.29152 0.879963L10.2869 4.34672ZM10.705 4.15145L12.0519 7.91785L12.0502 7.91847L10.705 4.15145ZM10.7723 4.13023L12.0221 7.92999L12.0121 7.93322L10.7723 4.13023ZM11.2169 4.02304L10.6466 0.0639083L10.6611 0.0618091L10.6757 0.0598173L11.2169 4.02304ZM11.2513 4.01986L10.6849 0.0601652L10.7143 0.0559545L10.7438 0.0521817L11.2513 4.01986ZM11.6901 4.00235L11.5757 8.00071L11.5534 8.00007L11.5312 7.99919L11.6901 4.00235ZM11.7458 4.00341L11.9743 0.00994015L11.9831 0.0104475L11.992 0.0109944L11.7458 4.00341ZM12.1824 4.0708L13.1101 0.179852L13.1139 0.180765L12.1824 4.0708ZM12.255 4.08831L13.287 0.223703L13.2962 0.226197L12.255 4.08831ZM12.3387 4.10847L13.4487 0.265574L13.474 0.272878L13.4992 0.280514L12.3387 4.10847ZM55.9406 17.3269L57.1011 13.499L57.1014 13.4991L55.9406 17.3269ZM57.6814 20.5839L53.8522 19.4273L53.8526 19.426L57.6814 20.5839ZM54.4288 22.3276L53.2719 26.1566L53.2683 26.1555L54.4288 22.3276ZM17.4047 11.1032L14.0191 13.2334L8.3149 4.16772L18.5652 7.27525L17.4047 11.1032ZM67.5489 71.0525L70.2658 68.1168L70.2659 68.1168L67.5489 71.0525ZM125.607 114.538L123.535 117.959L123.535 117.959L125.607 114.538ZM191.177 145.896L192.386 142.083L192.386 142.083L191.177 145.896ZM192.878 149.175L189.063 147.971L189.064 147.969L192.878 149.175ZM189.605 150.878L190.809 147.064L190.811 147.064L189.605 150.878ZM123.039 119.089L125.11 115.666L125.11 115.666L123.039 119.089ZM64.0785 74.9547L66.7946 72.0182L66.7947 72.0183L64.0785 74.9547ZM13.2862 14.3538L9.31429 13.8807L10.6472 2.69058L16.6676 12.2169L13.2862 14.3538ZM9.21648 49.4257L5.21767 49.3281L5.21947 49.254L5.22403 49.1799L9.21648 49.4257ZM4 49.3599L8 49.3547V49.3599H4ZM5.01965 5.82654C5.0575 5.50765 5.11604 5.23423 5.16679 5.02778L12.9355 6.93751C12.9357 6.93674 12.9397 6.92051 12.945 6.89271C12.9504 6.86455 12.9576 6.82252 12.9639 6.76914L5.01965 5.82654ZM5.17772 4.9844C5.19472 4.91843 5.21027 4.86471 5.22041 4.83055C5.22559 4.81316 5.22998 4.79875 5.23291 4.78923C5.23564 4.78036 5.2381 4.77247 5.23842 4.77143C5.23935 4.76843 5.23816 4.77227 5.23666 4.77708C5.23499 4.78256 5.23183 4.79292 5.22786 4.80624C5.22012 4.83228 5.20689 4.87784 5.192 4.93558L12.9389 6.93208C12.9219 6.99805 12.9063 7.05177 12.8962 7.08593C12.891 7.10332 12.8866 7.11773 12.8837 7.12725C12.881 7.13612 12.8785 7.14401 12.8782 7.14505C12.8772 7.14805 12.8784 7.14422 12.8799 7.1394C12.8816 7.13392 12.8848 7.12356 12.8887 7.11024C12.8965 7.0842 12.9097 7.03864 12.9246 6.9809L5.17772 4.9844ZM5.20276 4.89473C5.2934 4.55786 5.41515 4.2061 5.578 3.85043L12.8518 7.18096C12.8917 7.09379 12.9149 7.0222 12.9281 6.97293L5.20276 4.89473ZM5.59473 3.81438C5.54942 3.9108 5.51723 3.98964 5.49945 4.0345C5.49036 4.05743 5.48343 4.07557 5.47992 4.0848C5.47731 4.09168 5.47394 4.10065 5.47662 4.09351C5.47768 4.09068 5.48286 4.0769 5.48944 4.05982C5.49631 4.04203 5.50673 4.01533 5.51987 3.98316C5.54552 3.92035 5.58795 3.82065 5.64734 3.7017L12.8047 7.27556C12.8338 7.21724 12.8582 7.16479 12.878 7.12025C12.8978 7.07581 12.914 7.03731 12.9263 7.00719C12.9385 6.97725 12.9481 6.95281 12.954 6.93728C12.9598 6.92247 12.9641 6.91096 12.9643 6.91042C12.9644 6.91012 12.9645 6.90978 12.9643 6.91037C12.9642 6.91071 12.9638 6.91174 12.9633 6.91296C12.9624 6.91536 12.9606 6.92012 12.9584 6.92602C12.954 6.93755 12.9462 6.95798 12.9362 6.98321C12.9166 7.03266 12.8825 7.11608 12.835 7.21701L5.59473 3.81438ZM5.61133 3.77574C5.79704 3.38381 6.00424 3.05497 6.18993 2.79261L12.7199 7.41418C12.7329 7.39591 12.7832 7.32284 12.8407 7.20153L5.61133 3.77574ZM6.17656 2.81162C6.16982 2.82128 6.16446 2.82905 6.161 2.83411C6.15761 2.83905 6.15533 2.84241 6.15517 2.84265C6.14961 2.85084 6.16507 2.828 6.17236 2.81732C6.19319 2.78679 6.25044 2.70307 6.32736 2.60294L12.6715 7.4765C12.7036 7.43481 12.7291 7.39962 12.7469 7.37461C12.7643 7.3501 12.777 7.3316 12.7812 7.3254C12.7834 7.32217 12.7847 7.32022 12.7838 7.3217C12.7831 7.32273 12.7829 7.32294 12.7814 7.32516C12.7803 7.32681 12.7786 7.32932 12.7767 7.33215C12.7697 7.34246 12.7535 7.36636 12.7333 7.39518L6.17656 2.81162ZM6.30487 2.63251C6.54182 2.31804 6.79149 2.04747 7.03517 1.8156L12.5498 7.61117C12.5805 7.58201 12.633 7.52793 12.694 7.44694L6.30487 2.63251ZM7.03751 1.81338C7.084 1.76921 7.14377 1.7136 7.21434 1.65155L12.4967 7.65955C12.5239 7.6357 12.5423 7.6183 12.5475 7.61339L7.03751 1.81338ZM7.19818 1.66583C7.39088 1.49455 7.64751 1.28345 7.96532 1.07549L12.3456 7.76972C12.4494 7.70184 12.5089 7.64887 12.5129 7.64527L7.19818 1.66583ZM7.97346 1.07017C8.04619 1.02283 8.10883 0.98521 8.15417 0.958724C8.1983 0.932947 8.23441 0.912888 8.24899 0.904809C8.25307 0.90255 8.25656 0.90062 8.25877 0.899399C8.25987 0.898789 8.26093 0.898211 8.26157 0.897857C8.26231 0.897439 8.26266 0.897246 8.26295 0.897084C8.2645 0.896232 8.26053 0.898424 8.25471 0.901665C8.24338 0.907998 8.21306 0.925006 8.17375 0.948437L12.2697 7.82036C12.2193 7.85042 12.1777 7.8738 12.1552 7.88638C12.1438 7.89275 12.1342 7.89804 12.1302 7.90027C12.1237 7.90387 12.1265 7.90232 12.1274 7.90179C12.1309 7.89988 12.1559 7.88603 12.1891 7.86663C12.2235 7.84653 12.2754 7.81547 12.3375 7.77504L7.97346 1.07017ZM8.13388 0.97252C7.97496 1.06976 7.85385 1.1595 7.78128 1.21562C7.74507 1.24363 7.7169 1.26646 7.70201 1.27861C7.6944 1.28483 7.68854 1.28966 7.68616 1.29162C7.6855 1.29217 7.68498 1.2926 7.68465 1.29288C7.68448 1.29302 7.68434 1.29313 7.68427 1.2932C7.68417 1.29327 7.68411 1.29332 7.68411 1.29332C7.68378 1.29359 7.68498 1.2926 7.68596 1.2918C7.68922 1.28909 7.70819 1.27339 7.73218 1.25411C7.75735 1.23387 7.79466 1.20436 7.84065 1.16986C7.93338 1.10029 8.06926 1.0044 8.24205 0.90423L12.2544 7.8253C12.4221 7.72805 12.5534 7.63535 12.6417 7.56909C12.6855 7.53625 12.7206 7.50843 12.7437 7.48989C12.7655 7.47233 12.7824 7.45835 12.7836 7.45737C12.784 7.457 12.7847 7.45643 12.7839 7.45714C12.7834 7.4575 12.782 7.45868 12.7802 7.46012C12.7768 7.46295 12.7699 7.46864 12.7613 7.47571C12.7443 7.48957 12.714 7.51409 12.6756 7.54375C12.5988 7.60319 12.4732 7.69611 12.3096 7.79628L8.13388 0.97252ZM8.16638 0.949215C8.34544 0.840069 8.49995 0.765023 8.60043 0.719285C8.65106 0.696241 8.69301 0.678391 8.72008 0.667075C8.74551 0.656446 8.76666 0.647924 8.76787 0.647438C8.7753 0.644432 8.75974 0.650698 8.74318 0.657548C8.72397 0.665492 8.69008 0.679695 8.64796 0.698473C8.56421 0.735828 8.42892 0.799611 8.26939 0.892789L12.3044 7.80066C12.2207 7.84956 12.1439 7.8904 12.0771 7.92396C12.0105 7.95737 11.9523 7.98433 11.9064 8.00479C11.8611 8.02503 11.8239 8.04062 11.8014 8.04993C11.7899 8.05467 11.7806 8.05847 11.7751 8.0607C11.7705 8.06257 11.7654 8.06463 11.7668 8.06405C11.7669 8.06404 11.768 8.06359 11.7695 8.06297C11.7711 8.06232 11.7736 8.0613 11.7767 8.06003C11.7829 8.05754 11.7927 8.05351 11.8048 8.04843C11.8287 8.03847 11.8674 8.02201 11.9148 8.00043C11.9626 7.97864 12.0234 7.94983 12.0928 7.91385C12.1625 7.87773 12.2427 7.83353 12.33 7.78032L8.16638 0.949215ZM8.29152 0.879963C8.60391 0.70016 8.96043 0.527045 9.3598 0.384431L12.0502 7.91847C12.1613 7.8788 12.2391 7.83834 12.2823 7.81348L8.29152 0.879963ZM9.35805 0.385059C9.41623 0.36425 9.46606 0.347808 9.50307 0.335975C9.53906 0.324463 9.56851 0.315537 9.58154 0.3116C9.58752 0.309791 9.59457 0.307675 9.59476 0.307619C9.59674 0.30702 9.59439 0.307724 9.59067 0.308859C9.58331 0.311097 9.56145 0.317776 9.53246 0.327232L12.0121 7.93322C11.9718 7.94639 11.9386 7.95659 11.9199 7.96226C11.9106 7.96511 11.9026 7.96751 11.899 7.9686C11.8935 7.97023 11.895 7.9698 11.8954 7.96968C11.8972 7.96913 11.9155 7.96362 11.9403 7.95567C11.9662 7.9474 12.0049 7.93468 12.0519 7.91785L9.35805 0.385059ZM9.52252 0.330481C9.83994 0.226082 10.2187 0.125544 10.6466 0.0639083L11.7872 7.98217C11.913 7.96405 11.9951 7.93886 12.0221 7.92997L9.52252 0.330481ZM10.6757 0.0598173C10.7213 0.0535979 10.762 0.0488122 10.7966 0.0451126C10.8312 0.0414221 10.8611 0.0386722 10.8845 0.0366666C10.9077 0.0346785 10.9268 0.0332434 10.9387 0.032373C10.9448 0.0319297 10.9498 0.0315754 10.953 0.0313506C10.9559 0.0311477 10.9587 0.0309563 10.9587 0.0309548C10.9595 0.0309017 10.9579 0.0310125 10.9557 0.031163C10.9534 0.0313268 10.9492 0.031621 10.944 0.0320096C10.9337 0.0327668 10.916 0.0341158 10.8939 0.0360568C10.8716 0.0380137 10.8422 0.0407848 10.8077 0.0445955C10.7731 0.0484157 10.7317 0.0534673 10.6849 0.0601652L11.8178 7.97955C11.7203 7.99349 11.6407 8.00128 11.5919 8.00555C11.5669 8.00774 11.5464 8.00931 11.5333 8.01028C11.521 8.01118 11.5105 8.0119 11.5099 8.01194C11.5064 8.01219 11.5133 8.01171 11.5213 8.01113C11.5303 8.01047 11.5464 8.00926 11.5667 8.00752C11.6066 8.00412 11.6742 7.99772 11.7581 7.98626L10.6757 0.0598173ZM10.7438 0.0521817C11.1392 0.00161409 11.5112 -0.00793123 11.849 0.00550389L11.5312 7.99919C11.5755 8.00095 11.6539 8.00095 11.7588 7.98753L10.7438 0.0521817ZM11.8045 0.00398135C11.7724 0.00306368 11.7482 0.00282121 11.7399 0.00274682C11.7356 0.0027082 11.7327 0.00269341 11.7344 0.00270319C11.7347 0.00270534 11.735 0.002707 11.7358 0.0027113C11.7364 0.00271487 11.7373 0.00272012 11.7383 0.00272608C11.7403 0.00273776 11.7432 0.00275612 11.7467 0.00278091C11.7592 0.00287104 11.7886 0.00310636 11.8249 0.00395155C11.8621 0.00481725 11.9135 0.00646138 11.9743 0.00994015L11.5173 7.99688C11.5688 7.99982 11.6109 8.00114 11.6388 8.00179C11.6658 8.00242 11.6859 8.00255 11.6892 8.00257C11.6904 8.00258 11.6923 8.00259 11.6876 8.00257C11.6846 8.00255 11.6771 8.0025 11.6682 8.00243C11.6506 8.00227 11.6171 8.00189 11.5757 8.00071L11.8045 0.00398135ZM11.992 0.0109944C12.4068 0.0365806 12.7831 0.10189 13.1101 0.179853L11.2547 7.96174C11.2924 7.97072 11.3772 7.98828 11.4995 7.99582L11.992 0.0109944ZM13.1139 0.180765C13.1076 0.179253 13.1039 0.178404 13.1083 0.179437C13.1093 0.179656 13.1234 0.182931 13.1351 0.185704C13.1606 0.191691 13.2177 0.205229 13.287 0.223714L11.2231 7.9529C11.2471 7.95931 11.2665 7.9642 11.2794 7.96739C11.2921 7.97052 11.301 7.97261 11.3027 7.973C11.3036 7.97323 11.3037 7.97325 11.3019 7.97284C11.3011 7.97263 11.3001 7.9724 11.2985 7.97204C11.2971 7.97171 11.2951 7.97125 11.293 7.97076C11.2853 7.96896 11.2694 7.96526 11.2509 7.96083L13.1139 0.180765ZM13.2962 0.226197C13.2408 0.211272 13.1977 0.201106 13.1774 0.196412C13.1669 0.193972 13.1593 0.192276 13.1575 0.191874C13.1565 0.191657 13.1562 0.191574 13.1574 0.191842C13.1576 0.191899 13.1613 0.19272 13.1638 0.19326C13.1734 0.19539 13.2102 0.203541 13.2545 0.21421C13.3007 0.225339 13.3683 0.242349 13.4487 0.265574L11.2287 7.95137C11.2625 7.96114 11.2926 7.96929 11.3179 7.97589C11.3431 7.98248 11.3647 7.98781 11.3813 7.99181C11.3978 7.99578 11.4108 7.99879 11.4187 8.00057C11.4261 8.00227 11.4312 8.0034 11.43 8.00312C11.4298 8.00308 11.4294 8.00301 11.4287 8.00284C11.4282 8.00274 11.4268 8.00243 11.4258 8.0022C11.4235 8.00169 11.4196 8.00083 11.4152 7.99983C11.4064 7.99787 11.3918 7.99459 11.3742 7.99053C11.3565 7.98643 11.3336 7.98103 11.3071 7.97449C11.2805 7.96794 11.2491 7.95992 11.2138 7.95042L13.2962 0.226197ZM13.4992 0.280514L57.1011 13.499L54.7801 21.1549L11.1782 7.93643L13.4992 0.280514ZM57.1014 13.4991C60.5966 14.559 62.5658 18.2511 61.5101 21.7419L53.8526 19.426C53.6321 20.1554 54.0423 20.9312 54.7798 21.1548L57.1014 13.4991ZM61.5105 21.7405C60.4548 25.2357 56.7676 27.2128 53.2719 26.1566L55.5856 18.4985C54.8508 18.2765 54.0739 18.6936 53.8522 19.4273L61.5105 21.7405ZM53.2683 26.1555L16.2442 14.9312L18.5652 7.27525L55.5893 18.4996L53.2683 26.1555ZM20.7903 8.97297C34.121 30.1595 50.7289 50.0358 70.2658 68.1168L64.832 73.9882C44.8097 55.458 27.7437 35.0458 14.0191 13.2334L20.7903 8.97297ZM70.2659 68.1168C87.3281 83.9082 106.644 98.378 127.679 111.116L123.535 117.959C102.064 104.957 82.3117 90.166 64.8319 73.9881L70.2659 68.1168ZM127.679 111.116C156.409 128.514 182.696 139.013 192.386 142.083L189.969 149.71C179.655 146.441 152.79 135.675 123.535 117.959L127.679 111.116ZM192.386 142.083C195.866 143.186 197.791 146.902 196.692 150.38L189.064 147.969C188.834 148.697 189.235 149.477 189.969 149.71L192.386 142.083ZM196.693 150.378C195.802 153.202 193.196 155 190.392 155V147C189.802 147 189.251 147.375 189.063 147.971L196.693 150.378ZM190.392 155C189.728 155 189.056 154.9 188.399 154.692L190.811 147.064C190.677 147.022 190.535 147 190.392 147V155ZM188.4 154.692C187.911 154.538 158.065 144.956 120.969 122.511L125.11 115.666C143.294 126.668 159.692 134.511 171.568 139.609C177.504 142.158 182.306 144.019 185.631 145.245C187.293 145.858 188.585 146.312 189.464 146.613C190.348 146.917 190.81 147.064 190.809 147.064L188.4 154.692ZM120.969 122.511C99.175 109.325 79.1187 94.3156 61.3624 77.8911L66.7947 72.0183C84.1334 88.0565 103.753 102.744 125.11 115.666L120.969 122.511ZM61.3624 77.8912C41.1176 59.1657 23.8382 38.5384 9.90485 16.4907L16.6676 12.2169C30.2092 33.6446 47.033 53.7398 66.7946 72.0182L61.3624 77.8912ZM17.2581 14.827C16.3413 22.5238 15.3462 30.933 14.5694 37.5941C14.181 40.9253 13.8477 43.8154 13.6062 45.9593C13.4854 47.032 13.3882 47.9121 13.3188 48.5651C13.2841 48.892 13.257 49.1555 13.2376 49.3546C13.2279 49.4541 13.2206 49.5323 13.2155 49.5912C13.2099 49.6553 13.2086 49.6771 13.2089 49.6714L5.22403 49.1799C5.32079 47.608 7.49521 29.1519 9.31429 13.8807L17.2581 14.827ZM13.2153 49.5232C13.1281 53.0958 10.2089 55.9721 6.60876 55.9721V47.9721C5.84685 47.9721 5.23592 48.5795 5.21767 49.3281L13.2153 49.5232ZM6.60876 55.9721C2.95372 55.9721 0 53.0067 0 49.3599H8C8 48.5986 7.38214 47.9721 6.60876 47.9721V55.9721ZM0 49.3651C-0.000549316 48.9403 0.0909882 48.0538 0.174011 47.2573C0.273987 46.2979 0.417587 44.9911 0.593277 43.4302C0.944962 40.3059 1.42911 36.1297 1.95955 31.6056C3.02063 22.5557 4.26944 12.0927 5.02016 5.82234L12.9634 6.77334C12.2129 13.0422 10.965 23.4974 9.90512 32.5372C9.37506 37.058 8.89264 41.2196 8.54308 44.3251C8.36815 45.8791 8.22746 47.1602 8.13091 48.0866C8.01738 49.1758 8.00015 49.473 8 49.3547L0 49.3651Z" fill="#0B2240" mask="url(#path-1-outside-1_1693_6405)"/>
<path d="M191.782 143.99L191.782 143.99C181.935 140.87 155.504 130.305 126.643 112.827L124.878 111.759L123.865 113.555L121.298 118.106L120.344 119.796L122.004 120.8C158.899 143.123 188.571 152.649 189.002 152.785L191.782 143.99ZM191.782 143.99C194.208 144.759 195.551 147.35 194.785 149.776C194.164 151.745 192.348 153 190.392 153C189.93 153 189.461 152.93 189.002 152.785L191.782 143.99Z" fill="#E1AB3D" stroke="#E1AB3D" stroke-width="4"/>
</svg>
