<svg width="27" height="27" viewBox="0 0 27 27" fill="none" xmlns="http://www.w3.org/2000/svg">
<path d="M0.984375 13.4999C0.984375 14.6066 1.424 15.6679 2.20654 16.4504C2.98908 17.233 4.05043 17.6726 5.1571 17.6726C6.26378 17.6726 7.32513 17.233 8.10767 16.4504C8.8902 15.6679 9.32983 14.6066 9.32983 13.4999C9.32983 12.3932 8.8902 11.3318 8.10767 10.5493C7.32513 9.76677 6.26378 9.32715 5.1571 9.32715C4.05043 9.32715 2.98908 9.76677 2.20654 10.5493C1.424 11.3318 0.984375 12.3932 0.984375 13.4999Z" fill="white" stroke="white" stroke-width="0.579545" stroke-linecap="round" stroke-linejoin="round"/>
<path d="M17.6719 5.15417C17.6719 6.26085 18.1115 7.3222 18.894 8.10474C19.6766 8.88727 20.7379 9.3269 21.8446 9.3269C22.9513 9.3269 24.0126 8.88727 24.7952 8.10474C25.5777 7.3222 26.0173 6.26085 26.0173 5.15417C26.0173 4.0475 25.5777 2.98615 24.7952 2.20361C24.0126 1.42107 22.9513 0.981445 21.8446 0.981445C20.7379 0.981445 19.6766 1.42107 18.894 2.20361C18.1115 2.98615 17.6719 4.0475 17.6719 5.15417Z" fill="white" stroke="white" stroke-width="0.579545" stroke-linecap="round" stroke-linejoin="round"/>
<path d="M17.6719 21.8446C17.6719 22.9513 18.1115 24.0126 18.894 24.7952C19.6766 25.5777 20.7379 26.0173 21.8446 26.0173C22.9513 26.0173 24.0126 25.5777 24.7952 24.7952C25.5777 24.0126 26.0173 22.9513 26.0173 21.8446C26.0173 20.7379 25.5777 19.6766 24.7952 18.894C24.0126 18.1115 22.9513 17.6719 21.8446 17.6719C20.7379 17.6719 19.6766 18.1115 18.894 18.894C18.1115 19.6766 17.6719 20.7379 17.6719 21.8446Z" fill="white" stroke="white" stroke-width="0.579545" stroke-linecap="round" stroke-linejoin="round"/>
<path d="M8.91406 11.692L18.0941 6.96289L8.91406 11.692Z" fill="white"/>
<path d="M8.91406 11.692L18.0941 6.96289" stroke="white" stroke-width="1.39091" stroke-linecap="round" stroke-linejoin="round"/>
<path d="M8.91406 15.3076L18.0941 20.0367L8.91406 15.3076Z" fill="white"/>
<path d="M8.91406 15.3076L18.0941 20.0367" stroke="white" stroke-width="1.39091" stroke-linecap="round" stroke-linejoin="round"/>
</svg>
