<svg width="17" height="17" viewBox="0 0 17 17" fill="none" xmlns="http://www.w3.org/2000/svg">
<path fill-rule="evenodd" clip-rule="evenodd" d="M11.6956 12.3688L15.1556 15.6477C15.3202 15.8053 15.5851 15.8019 15.747 15.64C15.9089 15.4781 15.9053 15.2201 15.7391 15.0642L12.2808 11.7836C12.1147 11.6262 11.8496 11.631 11.6879 11.7914C11.5275 11.9531 11.5296 12.2113 11.6956 12.3688Z" fill="#0B2240" stroke="#0B2240" stroke-width="2.25"/>
<path fill-rule="evenodd" clip-rule="evenodd" d="M7.81544 1.5C4.32916 1.5 1.5 4.32916 1.5 7.81544C1.5 11.3017 4.32916 14.1309 7.81544 14.1309C11.3017 14.1309 14.1309 11.3017 14.1309 7.81544C14.1309 4.32916 11.3017 1.5 7.81544 1.5ZM7.81544 2.32632C10.8453 2.32632 13.3046 4.7856 13.3046 7.81544C13.3046 10.8453 10.8453 13.3046 7.81544 13.3046C4.7856 13.3046 2.32632 10.8453 2.32632 7.81544C2.32632 4.7856 4.7856 2.32632 7.81544 2.32632Z" fill="#0B2240" stroke="#0B2240" stroke-width="2.25"/>
</svg>
