<svg width="22" height="19" viewBox="0 0 22 19" fill="none" xmlns="http://www.w3.org/2000/svg">
<path d="M21.1367 2.98869C20.3558 3.33125 19.5237 3.55831 18.6561 3.66856C19.5486 3.13569 20.2298 2.29831 20.55 1.289C19.7179 1.78512 18.7992 2.13556 17.82 2.33113C17.0299 1.48981 15.9038 0.96875 14.6753 0.96875C12.2918 0.96875 10.3729 2.90338 10.3729 5.27506C10.3729 5.61631 10.4018 5.94444 10.4727 6.25681C6.89347 6.08225 3.72641 4.36681 1.59884 1.75363C1.22741 2.39806 1.00953 3.13569 1.00953 3.92975C1.00953 5.42075 1.77734 6.74244 2.92184 7.50762C2.23016 7.4945 1.55159 7.29369 0.976719 6.97738C0.976719 6.9905 0.976719 7.00756 0.976719 7.02462C0.976719 9.11675 2.46903 10.8545 4.42597 11.2548C4.07553 11.3506 3.69359 11.3966 3.29722 11.3966C3.02159 11.3966 2.74334 11.3808 2.48216 11.3231C3.03997 13.028 4.62284 14.2814 6.50497 14.3221C5.04022 15.4679 3.18041 16.1583 1.16703 16.1583C0.813969 16.1583 0.475344 16.1426 0.136719 16.0992C2.04378 17.3291 4.30391 18.0312 6.74122 18.0312C14.6635 18.0312 18.9947 11.4688 18.9947 5.78038C18.9947 5.59006 18.9882 5.40631 18.979 5.22388C19.8334 4.6175 20.5513 3.86019 21.1367 2.98869Z" fill="#E1AB3D"/>
</svg>
