<svg width="27" height="19" viewBox="0 0 27 19" fill="none" xmlns="http://www.w3.org/2000/svg">
<path d="M25.7091 3.43938C25.4066 2.31481 24.52 1.42833 23.3956 1.12552C21.3414 0.563477 13.1247 0.563477 13.1247 0.563477C13.1247 0.563477 4.90826 0.563477 2.85411 1.10421C1.75134 1.4067 0.843063 2.31497 0.540573 3.43938C0 5.49336 0 9.75306 0 9.75306C0 9.75306 0 14.0342 0.540573 16.0667C0.843384 17.1911 1.72971 18.0776 2.85427 18.3804C4.92989 18.9426 13.125 18.9426 13.125 18.9426C13.125 18.9426 21.3414 18.9426 23.3956 18.4019C24.5201 18.0993 25.4066 17.2128 25.7094 16.0884C26.2498 14.0342 26.2498 9.77469 26.2498 9.77469C26.2498 9.77469 26.2715 5.49336 25.7091 3.43938ZM10.5087 13.6883V5.8178L17.3413 9.75306L10.5087 13.6883Z" fill="#E1AB3D"/>
</svg>
